<svg width="3332" height="821" viewBox="0 0 3332 821" fill="none" xmlns="http://www.w3.org/2000/svg">
<g filter="url(#filter0_dd_1_9)">
<rect x="60" y="100" width="3212" height="681" rx="160" fill="#0A071C"/>
<rect x="60" y="100" width="3212" height="681" rx="160" fill="url(#paint0_linear_1_9)" fill-opacity="0.2"/>
<rect x="60" y="100" width="3212" height="681" rx="160" fill="url(#paint1_linear_1_9)" fill-opacity="0.2"/>
<rect x="60" y="100" width="3212" height="681" rx="160" fill="url(#paint2_linear_1_9)" fill-opacity="0.2"/>
<path d="M410.001 260.5C509.411 260.5 590 341.089 590 440.5C590 539.911 509.411 620.5 410.001 620.5C310.589 620.5 230 539.911 230 440.5C230 341.089 310.589 260.5 410.001 260.5Z" fill="#F73B95"/>
<path d="M410.402 295.645C490.878 295.645 556.116 360.884 556.116 441.36C556.116 521.835 490.878 587.074 410.402 587.074C329.926 587.074 264.688 521.835 264.688 441.36C264.688 360.884 329.926 295.645 410.402 295.645Z" fill="#BD399C"/>
<path d="M410.423 334.218C469.596 334.218 517.566 382.187 517.566 441.362C517.566 500.535 469.596 548.504 410.423 548.504C351.25 548.504 303.281 500.535 303.281 441.362C303.281 382.187 351.25 334.218 410.423 334.218Z" fill="#93388E"/>
<path d="M409.576 366.782C449.812 366.782 482.432 399.401 482.432 439.639C482.432 479.875 449.812 512.495 409.576 512.495C369.339 512.495 336.719 479.875 336.719 439.639C336.719 399.401 369.339 366.782 409.576 366.782Z" fill="#6030A2"/>
<path d="M766.64 553H814.64V329H766.64V553ZM960.21 458.6V553H1006.93V447.4C1006.93 404.2 981.97 383.4 949.65 383.4C915.41 383.4 899.41 405.8 896.53 421.48H894.61V386.6H847.89V553H894.61V458.6C894.61 433.32 909.97 422.12 929.49 422.12C949.01 422.12 960.21 433.32 960.21 458.6ZM1102.48 556.2C1142.8 556.2 1177.04 540.2 1177.04 503.08C1177.04 473.64 1155.28 461.48 1129.04 455.72L1097.68 449C1086.48 446.76 1080.4 441.32 1080.4 433C1080.4 424.04 1087.76 418.28 1103.76 418.28C1119.76 418.28 1130.64 424.36 1132.56 441H1171.6C1170.96 405.16 1147.6 383.4 1103.12 383.4C1062.8 383.4 1034.96 401.96 1034.96 434.28C1034.96 456.36 1047.44 474.92 1082.32 482.92L1113.04 489.32C1123.92 491.56 1129.04 496.36 1129.04 504.04C1129.04 515.88 1118.48 521.32 1102.8 521.32C1084.56 521.32 1074 513.96 1072.4 498.28H1030.48C1030.8 536.68 1058 556.2 1102.48 556.2ZM1273.02 555.24C1282.3 555.24 1291.26 553.96 1298.62 552.04V517.16C1291.9 517.8 1289.02 517.8 1285.5 517.8C1268.22 517.8 1264.38 509.16 1264.38 496.36V422.76H1297.34V386.6H1264.38V343.72H1217.66V386.6H1189.5V422.76H1217.66V503.08C1217.66 540.2 1239.74 555.24 1273.02 555.24ZM1366.14 556.2C1402.62 556.2 1416.06 532.52 1419.26 523.56H1421.18V553H1465.66V437.48C1465.66 401.32 1445.5 383.4 1395.26 383.4C1343.42 383.4 1321.66 401.96 1321.66 434.6V442.28L1365.5 441.96V439.08C1365.5 421.8 1378.94 417 1393.98 417C1408.38 417 1419.9 421.8 1419.9 439.4V441.64C1419.9 450.92 1415.1 453.48 1399.74 455.72L1371.58 459.88C1342.78 464.04 1312.7 472.04 1312.7 508.84C1312.7 543.08 1338.94 556.2 1366.14 556.2ZM1359.42 505C1359.42 496.36 1364.22 489.32 1378.62 487.08L1401.98 482.92C1409.34 481.64 1417.34 480.36 1419.9 476.52V495.08C1419.9 508.2 1404.22 522.92 1382.14 522.92C1366.14 522.92 1359.42 515.24 1359.42 505ZM1498.83 553H1545.55V329H1498.83V553ZM1578.83 553H1625.55V329H1578.83V553ZM1808.1 556.2C1850.02 556.2 1891.62 530.28 1891.62 469.8C1891.62 409.32 1850.02 383.4 1808.1 383.4C1766.18 383.4 1724.58 409.32 1724.58 469.8C1724.58 530.28 1766.18 556.2 1808.1 556.2ZM1768.42 469.8C1768.42 436.84 1785.7 422.12 1808.1 422.12C1830.5 422.12 1847.78 436.84 1847.78 469.8C1847.78 502.76 1830.5 517.48 1808.1 517.48C1785.7 517.48 1768.42 502.76 1768.42 469.8ZM2029.27 458.6V553H2075.99V447.4C2075.99 404.2 2051.03 383.4 2018.71 383.4C1984.47 383.4 1968.47 405.8 1965.59 421.48H1963.67V386.6H1916.95V553H1963.67V458.6C1963.67 433.32 1979.03 422.12 1998.55 422.12C2018.07 422.12 2029.27 433.32 2029.27 458.6ZM2271.53 556.2C2322.73 556.2 2362.73 535.4 2362.73 487.08C2362.73 453.16 2342.57 432.68 2289.77 421.8L2260.97 416.04C2240.81 411.88 2234.41 401.96 2234.41 391.72C2234.41 378.6 2243.69 365.8 2269.61 365.8C2291.69 365.8 2308.01 375.08 2307.37 395.24H2356.65C2356.65 349.16 2323.05 326.12 2270.57 326.12C2219.05 326.12 2184.17 348.52 2184.17 391.72C2184.17 431.72 2213.93 447.72 2249.45 454.44L2280.81 460.84C2301.29 465 2311.85 472.04 2311.85 487.4C2311.85 505.64 2297.13 516.52 2271.85 516.52C2240.81 516.52 2228.65 499.88 2227.69 479.72H2178.09C2178.09 529 2213.61 556.2 2271.53 556.2ZM2391.33 613.8H2438.05V529C2444.13 543.4 2462.37 556.2 2487.01 556.2C2521.89 556.2 2559.97 530.92 2559.97 469.8C2559.97 408.68 2521.89 383.4 2487.01 383.4C2462.37 383.4 2444.13 396.2 2438.05 410.6V386.6H2391.33V613.8ZM2436.13 469.8C2436.13 437.16 2455.33 422.12 2475.81 422.12C2496.61 422.12 2515.81 437.16 2515.81 469.8C2515.81 502.44 2496.61 517.48 2475.81 517.48C2455.33 517.48 2436.13 502.44 2436.13 469.8ZM2630.83 556.2C2667.31 556.2 2680.75 532.52 2683.95 523.56H2685.87V553H2730.35V437.48C2730.35 401.32 2710.19 383.4 2659.95 383.4C2608.11 383.4 2586.35 401.96 2586.35 434.6V442.28L2630.19 441.96V439.08C2630.19 421.8 2643.63 417 2658.67 417C2673.07 417 2684.59 421.8 2684.59 439.4V441.64C2684.59 450.92 2679.79 453.48 2664.43 455.72L2636.27 459.88C2607.47 464.04 2577.39 472.04 2577.39 508.84C2577.39 543.08 2603.63 556.2 2630.83 556.2ZM2624.11 505C2624.11 496.36 2628.91 489.32 2643.31 487.08L2666.67 482.92C2674.03 481.64 2682.03 480.36 2684.59 476.52V495.08C2684.59 508.2 2668.91 522.92 2646.83 522.92C2630.83 522.92 2624.11 515.24 2624.11 505ZM2837.79 556.2C2867.23 556.2 2908.83 544.04 2913.95 488.04H2871.71C2867.55 507.88 2856.03 517.16 2837.47 517.16C2810.91 517.16 2798.11 497.64 2798.11 470.12C2798.11 442.6 2810.91 422.44 2837.47 422.44C2855.39 422.44 2867.55 430.76 2871.71 450.92H2913.95C2907.87 394.92 2866.91 383.4 2837.79 383.4C2796.83 383.4 2753.95 408.04 2753.95 470.12C2753.95 532.2 2796.83 556.2 2837.79 556.2ZM3014.36 556.2C3053.08 556.2 3082.52 536.68 3090.83 498.6H3049.56C3045.72 512.04 3036.44 520.68 3015 520.68C2991.96 520.68 2977.56 509.48 2975 481.64H3092.12C3092.76 478.12 3093.08 474.92 3093.08 468.84C3093.08 405.8 3056.92 383.4 3014.04 383.4C2969.88 383.4 2930.52 407.4 2930.52 469.48C2930.52 532.84 2972.12 556.2 3014.36 556.2ZM2975 454.12C2978.2 431.08 2991 418.92 3012.76 418.92C3038.36 418.92 3048.28 434.92 3048.92 454.12H2975Z" fill="url(#paint3_linear_1_9)"/>
<rect x="80" y="120" width="3172" height="641" rx="140" stroke="#403B62" stroke-opacity="0.7" stroke-width="40"/>
<rect x="80" y="120" width="3172" height="641" rx="140" stroke="url(#paint4_linear_1_9)" stroke-opacity="0.1" stroke-width="40"/>
<rect x="80" y="120" width="3172" height="641" rx="140" stroke="url(#paint5_linear_1_9)" stroke-opacity="0.4" stroke-width="40"/>
</g>
<defs>
<filter id="filter0_dd_1_9" x="0" y="0" width="3332" height="820.518" filterUnits="userSpaceOnUse" color-interpolation-filters="sRGB">
<feFlood flood-opacity="0" result="BackgroundImageFix"/>
<feColorMatrix in="SourceAlpha" type="matrix" values="0 0 0 0 0 0 0 0 0 0 0 0 0 0 0 0 0 0 127 0" result="hardAlpha"/>
<feMorphology radius="39.5181" operator="dilate" in="SourceAlpha" result="effect1_dropShadow_1_9"/>
<feOffset/>
<feComposite in2="hardAlpha" operator="out"/>
<feColorMatrix type="matrix" values="0 0 0 0 0.172549 0 0 0 0 0.145098 0 0 0 0 0.317647 0 0 0 0.15 0"/>
<feBlend mode="normal" in2="BackgroundImageFix" result="effect1_dropShadow_1_9"/>
<feColorMatrix in="SourceAlpha" type="matrix" values="0 0 0 0 0 0 0 0 0 0 0 0 0 0 0 0 0 0 127 0" result="hardAlpha"/>
<feOffset dy="-40"/>
<feGaussianBlur stdDeviation="30"/>
<feComposite in2="hardAlpha" operator="out"/>
<feColorMatrix type="matrix" values="0 0 0 0 1 0 0 0 0 1 0 0 0 0 1 0 0 0 0.15 0"/>
<feBlend mode="normal" in2="effect1_dropShadow_1_9" result="effect2_dropShadow_1_9"/>
<feBlend mode="normal" in="SourceGraphic" in2="effect2_dropShadow_1_9" result="shape"/>
</filter>
<linearGradient id="paint0_linear_1_9" x1="1666" y1="100" x2="1666" y2="781" gradientUnits="userSpaceOnUse">
<stop stop-color="white"/>
<stop offset="0.333333" stop-color="white" stop-opacity="0.765028"/>
<stop offset="0.666667" stop-color="white" stop-opacity="0.630208"/>
<stop offset="1" stop-color="white" stop-opacity="0"/>
</linearGradient>
<linearGradient id="paint1_linear_1_9" x1="1666" y1="100" x2="1666" y2="781" gradientUnits="userSpaceOnUse">
<stop stop-opacity="0"/>
<stop offset="0.333333" stop-opacity="0.478044"/>
<stop offset="0.666667" stop-opacity="0.609375"/>
<stop offset="1"/>
</linearGradient>
<linearGradient id="paint2_linear_1_9" x1="1666" y1="100" x2="1666" y2="781" gradientUnits="userSpaceOnUse">
<stop stop-opacity="0"/>
<stop offset="0.333333" stop-opacity="0.478044"/>
<stop offset="0.666667" stop-opacity="0.609375"/>
<stop offset="1"/>
</linearGradient>
<linearGradient id="paint3_linear_1_9" x1="1926" y1="380.389" x2="1926" y2="550.704" gradientUnits="userSpaceOnUse">
<stop stop-color="#FEFBF6"/>
<stop offset="0.25" stop-color="#FEFBF6" stop-opacity="0.942476"/>
<stop offset="0.5" stop-color="#FEFBF6" stop-opacity="0.888438"/>
<stop offset="0.75" stop-color="#FEFBF6" stop-opacity="0.8546"/>
<stop offset="1" stop-color="#FEFBF6" stop-opacity="0.79"/>
</linearGradient>
<linearGradient id="paint4_linear_1_9" x1="1666" y1="100" x2="1666" y2="781" gradientUnits="userSpaceOnUse">
<stop stop-color="white"/>
<stop offset="0.333333" stop-color="white" stop-opacity="0.765028"/>
<stop offset="0.666667" stop-color="white" stop-opacity="0.630208"/>
<stop offset="1" stop-color="white" stop-opacity="0"/>
</linearGradient>
<linearGradient id="paint5_linear_1_9" x1="1666" y1="100" x2="1666" y2="781" gradientUnits="userSpaceOnUse">
<stop stop-opacity="0"/>
<stop offset="0.333333" stop-opacity="0.478044"/>
<stop offset="0.666667" stop-opacity="0.609375"/>
<stop offset="1"/>
</linearGradient>
</defs>
</svg>

